<svg id="Layer_1" enable-background="new 0 0 512 512" height="512" viewBox="0 0 512 512" width="512" xmlns="http://www.w3.org/2000/svg"><g><g><path d="m467.975 512c-.001 0-.001 0-.002 0l-149.973-.02-66-27.98-58 27.964-150.027-.02c-3.981 0-7.798-1.583-10.611-4.4-2.813-2.816-4.391-6.636-4.387-10.617l.051-43.965c.079-68.075 55.563-123.457 123.686-123.457h206.628c32.998 0 64.084 12.928 87.532 36.402 23.352 23.378 36.19 54.307 36.153 87.089l-.051 44.021c-.009 8.277-6.722 14.983-14.999 14.983z" fill="#ff4a4a"/></g><path d="m446.872 365.908c-23.448-23.474-54.534-36.402-87.532-36.402h-103.315v156.201l61.975 26.273 149.973.02h.002c8.277 0 14.99-6.706 15-14.982l.051-44.021c.036-32.782-12.802-63.711-36.154-87.089z" fill="#d01273"/><g><path d="m317.689 512h-123.378l18.178-66 86.748-1z" fill="#ffb454"/></g><g><g><path d="m383.367 340c-39.366 0-71.394-32.027-71.394-71.393 0-7.206 1.048-14.223 3.125-20.969-11.453-12.521-17.849-28.815-17.849-46.138 0-37.771 30.729-68.5 68.5-68.5s68.5 30.729 68.5 68.5c0 5.209-.578 10.336-1.724 15.335 14.083 13.375 22.234 32.033 22.234 51.771.002 39.367-32.026 71.394-71.392 71.394z" fill="#604a43"/></g></g><g><g><path d="m128.633 340c-39.367 0-71.394-32.027-71.394-71.393 0-19.739 8.151-38.396 22.234-51.771-1.146-4.999-1.724-10.126-1.724-15.335 0-37.771 30.729-68.5 68.5-68.5s68.5 30.729 68.5 68.5c0 17.322-6.396 33.617-17.849 46.137 2.077 6.746 3.125 13.763 3.125 20.969.001 39.366-32.026 71.393-71.392 71.393z" fill="#74564f"/></g></g><path d="m256.025 512h61.664l-18.453-67-43.211.498z" fill="#ff8659"/><g><path d="m255.87 461.542c-42.102 0-82.906-8.989-114.897-25.31-37.178-18.967-61.413-46.884-70.085-80.731-1.646-6.427 1.125-13.172 6.814-16.585l83.031-49.813c2.319-1.392 4.972-2.13 7.677-2.137l174.565-.463h.04c2.724 0 5.396.741 7.729 2.145l83.617 50.276c5.682 3.416 8.446 10.156 6.801 16.578-8.661 33.808-32.932 61.711-70.188 80.694-32.077 16.345-72.955 25.346-115.104 25.346z" fill="#f9f9f9"/></g><path d="m434.361 338.924-83.617-50.276c-2.334-1.404-5.006-2.145-7.729-2.145-.014 0-.026 0-.04 0l-86.95.231v174.806c42.094-.022 82.912-9.02 114.95-25.344 37.256-18.983 61.526-46.887 70.188-80.694 1.645-6.422-1.12-13.163-6.802-16.578z" fill="#e2dff4"/><g><g><path d="m256 366.215c-74.991 0-136-61.009-136-136 0 0 .272-87.705 1.089-94.112.955-7.49 7.329-13.103 14.879-13.103h240.062c7.551 0 13.925 5.613 14.88 13.103.816 6.407 1.089 94.112 1.089 94.112.001 74.991-61.009 136-135.999 136z" fill="#ffe4c1"/></g></g><path d="m390.911 136.103c-.955-7.49-7.329-13.103-14.88-13.103h-120.006v243.215c74.979-.014 135.975-61.017 135.975-136 0 0-.272-87.705-1.089-94.112z" fill="#fdd1a3"/><g><path d="m392 163h-272.018v-110.627c0-4.015 1.467-7.947 4.295-10.796 4.796-4.833 11.989-5.78 17.732-2.736l44.349 23.513 59.134-58.058c5.835-5.729 15.184-5.729 21.018 0l59.133 58.057 44.33-23.511c5.74-3.045 12.933-2.099 17.731 2.731 2.829 2.848 4.297 6.78 4.297 10.794v110.633z" fill="#ffd845"/></g><path d="m321.542 273.697c-5.896-5.823-15.394-5.763-21.213.13l-.993 1.005c-.813.823-1.739.996-2.373.996s-1.56-.173-2.373-.996l-2.355-2.384c-7.588-7.681-16.888-12.42-27.206-13.925-1.237-.33-16.821-.33-18.057 0-10.319 1.505-19.619 6.244-27.207 13.927l-2.354 2.383c-.813.824-1.74.997-2.374.997s-1.56-.173-2.374-.997l-.992-1.004c-5.822-5.894-15.32-5.951-21.213-.13-5.894 5.822-5.952 15.319-.13 21.213l.992 1.004c6.315 6.393 14.738 9.914 23.716 9.914s17.401-3.521 23.717-9.915l2.354-2.383c3.727-3.773 7.906-5.53 13.15-5.53h3.483c5.244 0 9.424 1.757 13.15 5.53l2.354 2.384c6.315 6.393 14.738 9.914 23.717 9.914s17.401-3.521 23.716-9.914l.992-1.004c5.824-5.896 5.767-15.393-.127-21.215z" fill="#74564f"/><path d="m321.542 273.697c-5.896-5.823-15.394-5.763-21.213.13l-.993 1.005c-.813.823-1.739.996-2.373.996s-1.56-.173-2.373-.996l-2.355-2.384c-7.588-7.681-16.888-12.42-27.206-13.925-.617-.165-4.807-.247-9.004-.247v29.724h1.716c5.244 0 9.424 1.757 13.15 5.53l2.354 2.384c6.315 6.393 14.738 9.914 23.717 9.914s17.401-3.521 23.716-9.914l.992-1.004c5.823-5.894 5.766-15.391-.128-21.213z" fill="#604a43"/><path d="m387.702 41.573c-4.798-4.83-11.991-5.776-17.731-2.731l-44.33 23.511-59.132-58.057c-2.911-2.858-6.696-4.289-10.484-4.295v162.999h135.975v-110.633c0-4.014-1.468-7.946-4.298-10.794z" fill="#ffb454"/></g></svg>